<?xml version="1.0" encoding="UTF-8"?>
<svg width="1440" height="900" viewBox="0 0 1440 900" fill="none" xmlns="http://www.w3.org/2000/svg">
  <g opacity="0.35">
    <!-- Abstract curved lines in the logo colors -->
    <path d="M-100 300C100 150 300 450 500 300C700 150 900 450 1100 300C1300 150 1500 450 1700 300" stroke="url(#paint0_linear)" stroke-width="1" />
    <path d="M-100 400C100 250 300 550 500 400C700 250 900 550 1100 400C1300 250 1500 550 1700 400" stroke="url(#paint1_linear)" stroke-width="1" />
    <path d="M-100 500C100 350 300 650 500 500C700 350 900 650 1100 500C1300 350 1500 650 1700 500" stroke="url(#paint0_linear)" stroke-width="1" />
    <path d="M-100 600C100 450 300 750 500 600C700 450 900 750 1100 600C1300 450 1500 750 1700 600" stroke="url(#paint1_linear)" stroke-width="1" />
    
    <!-- Circular nodes like in the logo -->
    <circle cx="200" cy="200" r="5" fill="#4aa9de" opacity="0.6" />
    <circle cx="400" cy="300" r="8" fill="#4aa9de" opacity="0.6" />
    <circle cx="600" cy="200" r="6" fill="#2196f3" opacity="0.6" />
    <circle cx="800" cy="350" r="9" fill="#2196f3" opacity="0.6" />
    <circle cx="1000" cy="150" r="7" fill="#26c6da" opacity="0.6" />
    <circle cx="1200" cy="250" r="5" fill="#26c6da" opacity="0.6" />
    
    <!-- Connection lines between nodes -->
    <path d="M200 200L400 300L600 200L800 350L1000 150L1200 250" stroke="url(#paint0_linear)" stroke-width="1" opacity="0.4" />
  </g>
  
  <defs>
    <!-- Logo color gradients -->
    <linearGradient id="paint0_linear" x1="0" y1="0" x2="1440" y2="900" gradientUnits="userSpaceOnUse">
      <stop offset="0" stop-color="#2196f3" />
      <stop offset="1" stop-color="#26c6da" />
    </linearGradient>
    <linearGradient id="paint1_linear" x1="1440" y1="0" x2="0" y2="900" gradientUnits="userSpaceOnUse">
      <stop offset="0" stop-color="#26c6da" />
      <stop offset="1" stop-color="#2196f3" />
    </linearGradient>
  </defs>
</svg> 